#N canvas 194 1 1078 533 10;
#X obj 519 30 vsl 15 330 0 1 0 0 empty empty empty 0 -9 0 10 -262144
-1 -1 0 1;
#X obj 52 363 *~;
#X obj 636 30 vsl 15 330 0 1 0 0 empty empty empty 0 -9 0 10 -262144
-1 -1 0 1;
#X obj 90 363 *~;
#X obj -24 43 vsl 15 330 0 2.00038e+006 0 0 empty empty empty 0 -9
0 10 -262144 -1 -1 1645 1;
#X obj -18 21 r actramp;
#X obj -18 480 s rampval;
#X obj 63 21 r rampval;
#X obj 51 42 line;
#X obj 52 396 dac~;
#X obj 51 1 r lineA;
#N canvas 110 184 283 365 dc 0;
#X obj 126 893 s sliderAZ;
#X obj 67 312 outlet;
#X msg 5 74 1;
#X msg 62 74 0;
#X msg 125 75 1;
#X msg 182 76 0;
#X obj 5 94 t b b b;
#X obj 5 125 tgl 15 0 empty empty empty 17 7 0 10 -262144 -1 -1 0 1
;
#X obj 5 151 metro 33;
#X obj 5 177 i;
#X obj 5 201 +;
#X msg 33 177 1;
#X floatatom 67 268 5 0 0 0 - - -, f 5;
#X obj 5 247 loadbang;
#X msg 5 268 0;
#X obj 5 3 key;
#X obj 125 95 t b b b;
#X obj 125 126 tgl 15 0 empty empty empty 17 7 0 10 -262144 -1 -1 0
1;
#X obj 125 152 metro 33;
#X obj 125 177 i;
#X msg 153 177 1;
#X obj 125 201 -;
#X obj 125 3 keyup;
#X obj 189 152 i;
#X obj 69 151 i;
#X obj 5 225 moses 0;
#X obj 66 225 moses 127;
#X obj 5 54 sel 100;
#X obj 62 54 sel 100;
#X obj 125 55 sel 99;
#X obj 182 55 sel 99;
#X obj 67 285 expr ($i1*$i1*$i1);
#X connect 2 0 6 0;
#X connect 3 0 7 0;
#X connect 4 0 16 0;
#X connect 5 0 17 0;
#X connect 6 0 7 0;
#X connect 6 1 11 0;
#X connect 6 2 24 0;
#X connect 7 0 8 0;
#X connect 8 0 9 0;
#X connect 9 0 10 0;
#X connect 10 0 9 1;
#X connect 10 0 25 0;
#X connect 11 0 10 1;
#X connect 12 0 23 1;
#X connect 12 0 24 1;
#X connect 12 0 31 0;
#X connect 13 0 14 0;
#X connect 14 0 12 0;
#X connect 15 0 27 0;
#X connect 15 0 29 0;
#X connect 16 0 17 0;
#X connect 16 1 20 0;
#X connect 16 2 23 0;
#X connect 17 0 18 0;
#X connect 18 0 19 0;
#X connect 19 0 21 0;
#X connect 20 0 21 1;
#X connect 21 0 19 1;
#X connect 21 0 25 0;
#X connect 22 0 28 0;
#X connect 22 0 30 0;
#X connect 23 0 19 1;
#X connect 24 0 9 1;
#X connect 25 1 26 0;
#X connect 26 0 12 0;
#X connect 27 0 2 0;
#X connect 28 0 3 0;
#X connect 29 0 4 0;
#X connect 30 0 5 0;
#X connect 31 0 1 0;
#X restore -24 1 pd dc;
#X text 522 61 F;
#X text 521 100 V;
#N canvas 241 50 354 374 hn 0;
#X obj 70 350 outlet;
#X msg 9 78 1;
#X msg 66 78 0;
#X msg 129 79 1;
#X msg 186 80 0;
#X obj 9 98 t b b b;
#X obj 9 129 tgl 15 0 empty empty empty 17 7 0 10 -262144 -1 -1 0 1
;
#X obj 9 155 metro 33;
#X obj 9 181 i;
#X obj 9 205 +;
#X msg 37 181 1;
#X floatatom 70 270 5 0 0 0 - - -, f 5;
#X obj 9 251 loadbang;
#X msg 9 272 0;
#X obj 9 7 key;
#X obj 129 99 t b b b;
#X obj 129 130 tgl 15 0 empty empty empty 17 7 0 10 -262144 -1 -1 0
1;
#X obj 129 156 metro 33;
#X obj 129 181 i;
#X msg 157 181 1;
#X obj 129 205 -;
#X obj 129 7 keyup;
#X obj 193 156 i;
#X obj 73 155 i;
#X obj 9 229 moses 0;
#X obj 269 350 outlet;
#X obj 269 7 r volhn;
#X floatatom 34 38 5 0 0 0 - - -, f 5;
#X floatatom 176 33 5 0 0 0 - - -, f 5;
#X obj 9 58 sel 103;
#X obj 66 58 sel 103;
#X obj 129 59 sel 98;
#X obj 186 59 sel 98;
#X obj 70 229 moses 1001;
#X obj 70 308 / 1000;
#X connect 1 0 5 0;
#X connect 2 0 6 0;
#X connect 3 0 15 0;
#X connect 4 0 16 0;
#X connect 5 0 6 0;
#X connect 5 1 10 0;
#X connect 5 2 23 0;
#X connect 6 0 7 0;
#X connect 7 0 8 0;
#X connect 8 0 9 0;
#X connect 9 0 8 1;
#X connect 9 0 24 0;
#X connect 10 0 9 1;
#X connect 11 0 22 1;
#X connect 11 0 23 1;
#X connect 11 0 34 0;
#X connect 12 0 13 0;
#X connect 13 0 11 0;
#X connect 14 0 27 0;
#X connect 14 0 29 0;
#X connect 14 0 31 0;
#X connect 15 0 16 0;
#X connect 15 1 19 0;
#X connect 15 2 22 0;
#X connect 16 0 17 0;
#X connect 17 0 18 0;
#X connect 18 0 20 0;
#X connect 19 0 20 1;
#X connect 20 0 18 1;
#X connect 20 0 24 0;
#X connect 21 0 28 0;
#X connect 21 0 30 0;
#X connect 21 0 32 0;
#X connect 22 0 18 1;
#X connect 23 0 8 1;
#X connect 24 1 33 0;
#X connect 26 0 25 0;
#X connect 29 0 1 0;
#X connect 30 0 2 0;
#X connect 31 0 3 0;
#X connect 32 0 4 0;
#X connect 33 0 11 0;
#X connect 34 0 0 0;
#X restore 636 1 pd hn;
#X obj 51 81 osc~;
#X text -23 119 C;
#X floatatom -24 499 20 0 0 0 - - -, f 20;
#X obj 168 1 r volL;
#X floatatom 168 62 16 0 1 0 - - -, f 16;
#X obj 180 21 r rampval;
#X text -23 85 D;
#X floatatom 636 365 16 0 1 0 - - -, f 16;
#X floatatom 519 365 16 0 1 0 - - -, f 16;
#X floatatom 51 62 16 0 0 0 - - -, f 16;
#X obj 168 42 line;
#N canvas 307 50 664 702 keyPress 0;
#X obj -104 -177 key;
#X floatatom -76 -177 5 0 0 0 - - -, f 5;
#X obj -104 -158 route 49 50 51 52 53 54 55 56 57 48 39 191;
#N canvas 436 257 450 300 (subpatch) 0;
#X obj 15 -155 inlet;
#X obj 59 -117 s actramp;
#X obj 15 -61 s lineA;
#X obj 38 -42 s volL;
#X obj 121 -42 s volR;
#X obj 15 -136 t b b b;
#X obj 98 -61 s lineB;
#X msg 15 -98 88.6981;
#X msg 38 -79 0.173228;
#X msg 98 -98 88;
#X msg 121 -79 0.086614;
#X connect 0 0 5 0;
#X connect 5 0 9 0;
#X connect 5 0 7 0;
#X connect 5 1 10 0;
#X connect 5 1 8 0;
#X connect 5 2 1 0;
#X connect 7 0 2 0;
#X connect 8 0 3 0;
#X connect 9 0 6 0;
#X connect 10 0 4 0;
#X restore -104 -92 pd 1;
#N canvas 445 245 450 300 (subpatch) 0;
#X obj 15 -155 inlet;
#X obj 59 -117 s actramp;
#X obj 15 -61 s lineA;
#X obj 38 -42 s volL;
#X obj 121 -42 s volR;
#X obj 15 -136 t b b b;
#X obj 98 -61 s lineB;
#X msg 15 -98 59.6981;
#X msg 38 -79 0.173228;
#X msg 98 -98 120;
#X msg 121 -79 0.086614;
#X connect 0 0 5 0;
#X connect 5 0 9 0;
#X connect 5 0 7 0;
#X connect 5 1 10 0;
#X connect 5 1 8 0;
#X connect 5 2 1 0;
#X connect 7 0 2 0;
#X connect 8 0 3 0;
#X connect 9 0 6 0;
#X connect 10 0 4 0;
#X restore -70 -92 pd 2;
#N canvas 445 245 450 300 (subpatch) 0;
#X obj 15 -155 inlet;
#X obj 59 -117 s actramp;
#X obj 15 -61 s lineA;
#X obj 38 -42 s volL;
#X obj 121 -42 s volR;
#X obj 15 -136 t b b b;
#X obj 98 -61 s lineB;
#X msg 15 -98 69.6981;
#X msg 38 -79 0.173228;
#X msg 98 -98 210;
#X msg 121 -79 0.086614;
#X connect 0 0 5 0;
#X connect 5 0 9 0;
#X connect 5 0 7 0;
#X connect 5 1 10 0;
#X connect 5 1 8 0;
#X connect 5 2 1 0;
#X connect 7 0 2 0;
#X connect 8 0 3 0;
#X connect 9 0 6 0;
#X connect 10 0 4 0;
#X restore -36 -92 pd 3;
#N canvas 445 245 450 300 (subpatch) 0;
#X obj 15 -155 inlet;
#X obj 59 -117 s actramp;
#X obj 15 -61 s lineA;
#X obj 38 -42 s volL;
#X obj 121 -42 s volR;
#X obj 15 -136 t b b b;
#X obj 98 -61 s lineB;
#X msg 38 -79 0.188;
#X msg 121 -79 0.288;
#X msg 15 -98 423.067;
#X msg 98 -98 234.927;
#X connect 0 0 5 0;
#X connect 5 0 10 0;
#X connect 5 0 9 0;
#X connect 5 1 8 0;
#X connect 5 1 7 0;
#X connect 5 2 1 0;
#X connect 7 0 3 0;
#X connect 8 0 4 0;
#X connect 9 0 2 0;
#X connect 10 0 6 0;
#X restore -2 -92 pd 4;
#N canvas 381 348 450 300 (subpatch) 0;
#X obj 15 -155 inlet;
#X obj 59 -117 s actramp;
#X obj 15 -61 s lineA;
#X obj 38 -42 s volL;
#X obj 121 -42 s volR;
#X obj 15 -136 t b b b;
#X obj 98 -61 s lineB;
#X msg 15 -98 271.5;
#X msg 38 -79 0.0364742;
#X msg 98 -98 348.627;
#X msg 121 -79 0.0390881;
#X connect 0 0 5 0;
#X connect 5 0 9 0;
#X connect 5 0 7 0;
#X connect 5 1 10 0;
#X connect 5 1 8 0;
#X connect 5 2 1 0;
#X connect 7 0 2 0;
#X connect 8 0 3 0;
#X connect 9 0 6 0;
#X connect 10 0 4 0;
#X restore 32 -92 pd 5;
#N canvas 445 245 450 300 (subpatch) 0;
#X obj 15 -155 inlet;
#X obj 59 -117 s actramp;
#X obj 15 -61 s lineA;
#X obj 38 -42 s volL;
#X obj 121 -42 s volR;
#X obj 15 -136 t b b b;
#X obj 98 -61 s lineB;
#X msg 15 -98 38.5;
#X msg 98 -98 38.6266;
#X msg 121 -79 0.0390881;
#X msg 38 -79 0.0364742;
#X connect 0 0 5 0;
#X connect 5 0 8 0;
#X connect 5 0 7 0;
#X connect 5 1 9 0;
#X connect 5 1 10 0;
#X connect 5 2 1 0;
#X connect 7 0 2 0;
#X connect 8 0 6 0;
#X connect 9 0 4 0;
#X connect 10 0 3 0;
#X restore 66 -92 pd 6;
#N canvas 445 245 450 300 (subpatch) 0;
#X obj 15 -155 inlet;
#X obj 59 -117 s actramp;
#X obj 15 -61 s lineA;
#X obj 38 -42 s volL;
#X obj 121 -42 s volR;
#X obj 15 -136 t b b b;
#X obj 98 -61 s lineB;
#X msg 15 -98 38.5;
#X msg 38 -79 0.279635;
#X msg 98 -98 38.6266;
#X msg 121 -79 0.0390881;
#X connect 0 0 5 0;
#X connect 5 0 9 0;
#X connect 5 0 7 0;
#X connect 5 1 10 0;
#X connect 5 1 8 0;
#X connect 5 2 1 0;
#X connect 7 0 2 0;
#X connect 8 0 3 0;
#X connect 9 0 6 0;
#X connect 10 0 4 0;
#X restore 100 -92 pd 7;
#N canvas 445 245 450 300 (subpatch) 0;
#X obj 15 -155 inlet;
#X obj 59 -117 s actramp;
#X obj 15 -61 s lineA;
#X obj 38 -42 s volL;
#X obj 121 -42 s volR;
#X obj 15 -136 t b b b;
#X obj 98 -61 s lineB;
#X msg 15 -98 38.5;
#X msg 38 -79 0.279635;
#X msg 98 -98 38.6266;
#X msg 121 -79 0.346079;
#X connect 0 0 5 0;
#X connect 5 0 9 0;
#X connect 5 0 7 0;
#X connect 5 1 10 0;
#X connect 5 1 8 0;
#X connect 5 2 1 0;
#X connect 7 0 2 0;
#X connect 8 0 3 0;
#X connect 9 0 6 0;
#X connect 10 0 4 0;
#X restore 134 -92 pd 8;
#N canvas 445 245 450 300 (subpatch) 0;
#X obj 15 -155 inlet;
#X obj 59 -117 s actramp;
#X obj 15 -61 s lineA;
#X obj 38 -42 s volL;
#X obj 121 -42 s volR;
#X obj 15 -136 t b b b;
#X obj 98 -61 s lineB;
#X msg 15 -98 75.8244;
#X msg 38 -79 0.0668693;
#X msg 98 -98 38.6266;
#X msg 121 -79 0.683465;
#X connect 0 0 5 0;
#X connect 5 0 9 0;
#X connect 5 0 7 0;
#X connect 5 1 10 0;
#X connect 5 1 8 0;
#X connect 5 2 1 0;
#X connect 7 0 2 0;
#X connect 8 0 3 0;
#X connect 9 0 6 0;
#X connect 10 0 4 0;
#X restore 168 -92 pd 9;
#N canvas 445 245 450 300 (subpatch) 0;
#X obj 15 -155 inlet;
#X obj 59 -117 s actramp;
#X obj 15 -61 s lineA;
#X obj 38 -42 s volL;
#X obj 121 -42 s volR;
#X obj 15 -136 t b b b;
#X msg 98 -98 0;
#X msg 121 -79 0;
#X msg 15 -98 0;
#X msg 38 -79 0;
#X obj 98 -61 s lineB;
#X connect 0 0 5 0;
#X connect 5 0 6 0;
#X connect 5 0 8 0;
#X connect 5 1 7 0;
#X connect 5 1 9 0;
#X connect 5 2 1 0;
#X connect 6 0 10 0;
#X connect 7 0 4 0;
#X connect 8 0 2 0;
#X connect 9 0 3 0;
#X restore 202 -92 pd 0;
#N canvas 445 245 449 300 ? 0;
#X obj 15 -155 inlet;
#X obj 59 -117 s actramp;
#X obj 15 -61 s lineA;
#X obj 38 -42 s volL;
#X obj 121 -42 s volR;
#X obj 15 -136 t b b b;
#X obj 98 -61 s lineB;
#X msg 15 -98 271.5;
#X msg 38 -79 0.0364742;
#X msg 98 -98 288.627;
#X msg 121 -79 0.0390881;
#X connect 0 0 5 0;
#X connect 5 0 9 0;
#X connect 5 0 7 0;
#X connect 5 1 10 0;
#X connect 5 1 8 0;
#X connect 5 2 1 0;
#X connect 7 0 2 0;
#X connect 8 0 3 0;
#X connect 9 0 6 0;
#X connect 10 0 4 0;
#X restore 236 -92 pd ?;
#N canvas 445 245 450 300 ¡ 0;
#X obj 8 -135 inlet;
#X obj 52 -97 s actramp;
#X obj 8 -41 s lineA;
#X obj 31 -22 s volL;
#X obj 114 -22 s volR;
#X obj 8 -116 t b b b;
#X obj 91 -41 s lineB;
#X msg 31 -59 0.0364742;
#X msg 91 -78 288.627;
#X msg 114 -59 0.0390881;
#X msg 8 -78 281.5;
#X connect 0 0 5 0;
#X connect 5 0 8 0;
#X connect 5 0 10 0;
#X connect 5 1 9 0;
#X connect 5 1 7 0;
#X connect 5 2 1 0;
#X connect 7 0 3 0;
#X connect 8 0 6 0;
#X connect 9 0 4 0;
#X connect 10 0 2 0;
#X restore 270 -92 pd ¡;
#X obj -104 -66 key;
#X floatatom -76 -66 5 0 0 0 - - -, f 5;
#X obj -104 -398 keyname;
#X symbolatom -104 -379 10 0 0 0 - - -, f 10;
#X obj -104 -363 list fromsymbol;
#X floatatom -27 -342 5 0 0 0 - - -, f 5;
#X obj -104 -47 route 113 119 101 114 116 121 117 105 111 112 180;
#N canvas 445 245 450 300 f1 0;
#X obj 15 -155 inlet;
#X obj 59 -117 s actramp;
#X obj 15 -61 s lineA;
#X obj 38 -42 s volL;
#X obj 121 -42 s volR;
#X obj 15 -136 t b b b;
#X obj 98 -61 s lineB;
#X msg 15 -98 242.067;
#X msg 38 -79 0.188;
#X msg 98 -98 181.927;
#X msg 121 -79 0.288;
#X connect 0 0 5 0;
#X connect 5 0 9 0;
#X connect 5 0 7 0;
#X connect 5 1 10 0;
#X connect 5 1 8 0;
#X connect 5 2 1 0;
#X connect 7 0 2 0;
#X connect 8 0 3 0;
#X connect 9 0 6 0;
#X connect 10 0 4 0;
#X restore -104 -207 pd f1;
#N canvas 445 245 450 300 f2 0;
#X obj 15 -155 inlet;
#X obj 59 -117 s actramp;
#X obj 15 -61 s lineA;
#X obj 38 -42 s volL;
#X obj 121 -42 s volR;
#X obj 15 -136 t b b b;
#X obj 98 -61 s lineB;
#X msg 15 -98 147.067;
#X msg 38 -79 0.188;
#X msg 98 -98 48.927;
#X msg 121 -79 0.288;
#X connect 0 0 5 0;
#X connect 5 0 9 0;
#X connect 5 0 7 0;
#X connect 5 1 10 0;
#X connect 5 1 8 0;
#X connect 5 2 1 0;
#X connect 7 0 2 0;
#X connect 8 0 3 0;
#X connect 9 0 6 0;
#X connect 10 0 4 0;
#X restore -63 -207 pd f2;
#N canvas 445 245 450 300 f3 0;
#X obj 15 -155 inlet;
#X obj 59 -117 s actramp;
#X obj 15 -61 s lineA;
#X obj 38 -42 s volL;
#X obj 121 -42 s volR;
#X obj 15 -136 t b b b;
#X obj 98 -61 s lineB;
#X msg 15 -98 242.067;
#X msg 38 -79 0.188;
#X msg 98 -98 241.927;
#X msg 121 -79 0.288;
#X connect 0 0 5 0;
#X connect 5 0 9 0;
#X connect 5 0 7 0;
#X connect 5 1 10 0;
#X connect 5 1 8 0;
#X connect 5 2 1 0;
#X connect 7 0 2 0;
#X connect 8 0 3 0;
#X connect 9 0 6 0;
#X connect 10 0 4 0;
#X restore -22 -207 pd f3;
#N canvas 445 245 450 300 f4 0;
#X obj 15 -155 inlet;
#X obj 59 -117 s actramp;
#X obj 15 -61 s lineA;
#X obj 38 -42 s volL;
#X obj 121 -42 s volR;
#X obj 15 -136 t b b b;
#X obj 98 -61 s lineB;
#X msg 38 -79 0.188;
#X msg 98 -98 241.927;
#X msg 121 -79 0.288;
#X msg 15 -98 403.067;
#X connect 0 0 5 0;
#X connect 5 0 8 0;
#X connect 5 0 10 0;
#X connect 5 1 9 0;
#X connect 5 1 7 0;
#X connect 5 2 1 0;
#X connect 7 0 3 0;
#X connect 8 0 6 0;
#X connect 9 0 4 0;
#X connect 10 0 2 0;
#X restore 19 -207 pd f4;
#N canvas 410 343 450 300 f5 0;
#X obj 15 -155 inlet;
#X obj 59 -117 s actramp;
#X obj 15 -61 s lineA;
#X obj 38 -42 s volL;
#X obj 121 -42 s volR;
#X obj 15 -136 t b b b;
#X obj 98 -61 s lineB;
#X msg 38 -79 0.188;
#X msg 98 -98 241.927;
#X msg 121 -79 0.288;
#X msg 15 -98 423.067;
#X connect 0 0 5 0;
#X connect 5 0 8 0;
#X connect 5 0 10 0;
#X connect 5 1 9 0;
#X connect 5 1 7 0;
#X connect 5 2 1 0;
#X connect 7 0 3 0;
#X connect 8 0 6 0;
#X connect 9 0 4 0;
#X connect 10 0 2 0;
#X restore 60 -207 pd f5;
#N canvas 445 245 450 300 f6 0;
#X obj 15 -155 inlet;
#X obj 59 -117 s actramp;
#X obj 15 -61 s lineA;
#X obj 38 -42 s volL;
#X obj 121 -42 s volR;
#X obj 15 -136 t b b b;
#X obj 98 -61 s lineB;
#X msg 38 -79 0.188;
#X msg 121 -79 0.288;
#X msg 15 -98 423.067;
#X msg 98 -98 253.927;
#X connect 0 0 5 0;
#X connect 5 0 10 0;
#X connect 5 0 9 0;
#X connect 5 1 8 0;
#X connect 5 1 7 0;
#X connect 5 2 1 0;
#X connect 7 0 3 0;
#X connect 8 0 4 0;
#X connect 9 0 2 0;
#X connect 10 0 6 0;
#X restore 101 -207 pd f6;
#N canvas 445 245 450 300 f7 0;
#X obj 15 -155 inlet;
#X obj 59 -117 s actramp;
#X obj 15 -61 s lineA;
#X obj 38 -42 s volL;
#X obj 121 -42 s volR;
#X obj 15 -136 t b b b;
#X obj 98 -61 s lineB;
#X msg 15 -98 436.338;
#X msg 38 -79 1;
#X msg 98 -98 75.8226;
#X msg 121 -79 0.346079;
#X connect 0 0 5 0;
#X connect 5 0 9 0;
#X connect 5 0 7 0;
#X connect 5 1 10 0;
#X connect 5 1 8 0;
#X connect 5 2 1 0;
#X connect 7 0 2 0;
#X connect 8 0 3 0;
#X connect 9 0 6 0;
#X connect 10 0 4 0;
#X restore 142 -207 pd f7;
#N canvas 445 245 450 300 f8 0;
#X obj 15 -155 inlet;
#X obj 59 -117 s actramp;
#X obj 15 -61 s lineA;
#X obj 38 -42 s volL;
#X obj 121 -42 s volR;
#X obj 15 -136 t b b b;
#X obj 98 -61 s lineB;
#X msg 15 -98 436.338;
#X msg 38 -79 0.245046;
#X msg 98 -98 67.2389;
#X msg 121 -79 0.130274;
#X connect 0 0 5 0;
#X connect 5 0 9 0;
#X connect 5 0 7 0;
#X connect 5 1 10 0;
#X connect 5 1 8 0;
#X connect 5 2 1 0;
#X connect 7 0 2 0;
#X connect 8 0 3 0;
#X connect 9 0 6 0;
#X connect 10 0 4 0;
#X restore 183 -207 pd f8;
#N canvas 445 245 450 300 f9 0;
#X obj 15 -155 inlet;
#X obj 59 -117 s actramp;
#X obj 15 -61 s lineA;
#X obj 38 -42 s volL;
#X obj 121 -42 s volR;
#X obj 15 -136 t b b b;
#X obj 98 -61 s lineB;
#X msg 15 -98 436.338;
#X msg 38 -79 0.245046;
#X msg 98 -98 81.5451;
#X msg 121 -79 0.130274;
#X connect 0 0 5 0;
#X connect 5 0 9 0;
#X connect 5 0 7 0;
#X connect 5 1 10 0;
#X connect 5 1 8 0;
#X connect 5 2 1 0;
#X connect 7 0 2 0;
#X connect 8 0 3 0;
#X connect 9 0 6 0;
#X connect 10 0 4 0;
#X restore 224 -207 pd f9;
#N canvas 445 245 450 300 q 0;
#X obj 15 -155 inlet;
#X obj 59 -117 s actramp;
#X obj 15 -61 s lineA;
#X obj 38 -42 s volL;
#X obj 121 -42 s volR;
#X obj 15 -136 t b b b;
#X obj 98 -61 s lineB;
#X msg 15 -98 75.8244;
#X msg 38 -79 0.0668693;
#X msg 98 -98 38.6266;
#X msg 121 -79 0.014772;
#X connect 0 0 5 0;
#X connect 5 0 9 0;
#X connect 5 0 7 0;
#X connect 5 1 10 0;
#X connect 5 1 8 0;
#X connect 5 2 1 0;
#X connect 7 0 2 0;
#X connect 8 0 3 0;
#X connect 9 0 6 0;
#X connect 10 0 4 0;
#X restore -104 19 pd q;
#N canvas 445 245 450 300 w 0;
#X obj 15 -155 inlet;
#X obj 59 -117 s actramp;
#X obj 15 -61 s lineA;
#X obj 38 -42 s volL;
#X obj 121 -42 s volR;
#X obj 15 -136 t b b b;
#X obj 98 -61 s lineB;
#X msg 15 -98 44.8226;
#X msg 38 -79 0.0668693;
#X msg 98 -98 21.4592;
#X msg 121 -79 0.0151976;
#X connect 0 0 5 0;
#X connect 5 0 9 0;
#X connect 5 0 7 0;
#X connect 5 1 10 0;
#X connect 5 1 8 0;
#X connect 5 2 1 0;
#X connect 7 0 2 0;
#X connect 8 0 3 0;
#X connect 9 0 6 0;
#X connect 10 0 4 0;
#X restore -70 19 pd w;
#N canvas 445 245 450 300 e 0;
#X obj 15 -155 inlet;
#X obj 59 -117 s actramp;
#X obj 15 -61 s lineA;
#X obj 38 -42 s volL;
#X obj 121 -42 s volR;
#X obj 15 -136 t b b b;
#X obj 98 -61 s lineB;
#X msg 38 -79 0.0668693;
#X msg 15 -98 41.4878;
#X msg 98 -98 40.0572;
#X msg 121 -79 0.0303951;
#X connect 0 0 5 0;
#X connect 5 0 9 0;
#X connect 5 0 8 0;
#X connect 5 1 10 0;
#X connect 5 1 7 0;
#X connect 5 2 1 0;
#X connect 7 0 3 0;
#X connect 8 0 2 0;
#X connect 9 0 6 0;
#X connect 10 0 4 0;
#X restore -36 19 pd e;
#N canvas 445 245 450 300 r 0;
#X obj 15 -155 inlet;
#X obj 59 -117 s actramp;
#X obj 15 -61 s lineA;
#X obj 38 -42 s volL;
#X obj 121 -42 s volR;
#X obj 15 -136 t b b b;
#X obj 98 -61 s lineB;
#X msg 15 -98 75.8244;
#X msg 38 -79 0.0668693;
#X msg 98 -98 38.6266;
#X msg 121 -79 0.121155;
#X connect 0 0 5 0;
#X connect 5 0 9 0;
#X connect 5 0 7 0;
#X connect 5 1 10 0;
#X connect 5 1 8 0;
#X connect 5 2 1 0;
#X connect 7 0 2 0;
#X connect 8 0 3 0;
#X connect 9 0 6 0;
#X connect 10 0 4 0;
#X restore -2 19 pd r;
#N canvas 445 245 450 300 t 0;
#X obj 15 -155 inlet;
#X obj 59 -117 s actramp;
#X obj 15 -61 s lineA;
#X obj 38 -42 s volL;
#X obj 121 -42 s volR;
#X obj 15 -136 t b b b;
#X obj 98 -61 s lineB;
#X msg 38 -79 0.0364742;
#X msg 121 -79 0.0390881;
#X msg 15 -98 143.5;
#X msg 98 -98 9.6266;
#X connect 0 0 5 0;
#X connect 5 0 10 0;
#X connect 5 0 9 0;
#X connect 5 1 8 0;
#X connect 5 1 7 0;
#X connect 5 2 1 0;
#X connect 7 0 3 0;
#X connect 8 0 4 0;
#X connect 9 0 2 0;
#X connect 10 0 6 0;
#X restore 32 19 pd t;
#N canvas 619 252 450 300 y 0;
#X obj 15 -155 inlet;
#X obj 59 -117 s actramp;
#X obj 15 -61 s lineA;
#X obj 38 -42 s volL;
#X obj 121 -42 s volR;
#X obj 15 -136 t b b b;
#X obj 98 -61 s lineB;
#X msg 15 -98 424.067;
#X msg 38 -79 0.188;
#X msg 98 -98 317.927;
#X msg 121 -79 0.288;
#X connect 0 0 5 0;
#X connect 5 0 9 0;
#X connect 5 0 7 0;
#X connect 5 1 10 0;
#X connect 5 1 8 0;
#X connect 5 2 1 0;
#X connect 7 0 2 0;
#X connect 8 0 3 0;
#X connect 9 0 6 0;
#X connect 10 0 4 0;
#X restore 66 19 pd y;
#N canvas 605 274 450 300 u 0;
#X obj 15 -155 inlet;
#X obj 59 -117 s actramp;
#X obj 15 -61 s lineA;
#X obj 38 -42 s volL;
#X obj 121 -42 s volR;
#X obj 15 -136 t b b b;
#X obj 98 -61 s lineB;
#X msg 15 -98 424.067;
#X msg 38 -79 0.188;
#X msg 98 -98 317.927;
#X msg 121 -79 1;
#X connect 0 0 5 0;
#X connect 5 0 9 0;
#X connect 5 0 7 0;
#X connect 5 1 10 0;
#X connect 5 1 8 0;
#X connect 5 2 1 0;
#X connect 7 0 2 0;
#X connect 8 0 3 0;
#X connect 9 0 6 0;
#X connect 10 0 4 0;
#X restore 100 19 pd u;
#N canvas 549 236 450 300 i 0;
#X obj 15 -155 inlet;
#X obj 59 -117 s actramp;
#X obj 15 -61 s lineA;
#X obj 38 -42 s volL;
#X obj 121 -42 s volR;
#X obj 15 -136 t b b b;
#X obj 98 -61 s lineB;
#X msg 15 -98 290.067;
#X msg 38 -79 0.103343;
#X msg 98 -98 241.927;
#X msg 121 -79 0.410334;
#X connect 0 0 5 0;
#X connect 5 0 9 0;
#X connect 5 0 7 0;
#X connect 5 1 10 0;
#X connect 5 1 8 0;
#X connect 5 2 1 0;
#X connect 7 0 2 0;
#X connect 8 0 3 0;
#X connect 9 0 6 0;
#X connect 10 0 4 0;
#X restore 134 19 pd i;
#N canvas 553 265 450 300 o 0;
#X obj 15 -155 inlet;
#X obj 59 -117 s actramp;
#X obj 15 -61 s lineA;
#X obj 38 -42 s volL;
#X obj 121 -42 s volR;
#X obj 15 -136 t b b b;
#X obj 98 -61 s lineB;
#X msg 15 -98 290.067;
#X msg 38 -79 1;
#X msg 98 -98 241.927;
#X msg 121 -79 1;
#X connect 0 0 5 0;
#X connect 5 0 9 0;
#X connect 5 0 7 0;
#X connect 5 1 10 0;
#X connect 5 1 8 0;
#X connect 5 2 1 0;
#X connect 7 0 2 0;
#X connect 8 0 3 0;
#X connect 9 0 6 0;
#X connect 10 0 4 0;
#X restore 168 19 pd o;
#N canvas 445 245 450 300 p 0;
#X obj 15 -155 inlet;
#X obj 59 -117 s actramp;
#X obj 15 -61 s lineA;
#X obj 38 -42 s volL;
#X obj 121 -42 s volR;
#X obj 15 -136 t b b b;
#X msg 98 -98 0;
#X msg 121 -79 0;
#X msg 15 -98 0;
#X msg 38 -79 0;
#X obj 98 -61 s lineB;
#X connect 0 0 5 0;
#X connect 5 0 6 0;
#X connect 5 0 8 0;
#X connect 5 1 7 0;
#X connect 5 1 9 0;
#X connect 5 2 1 0;
#X connect 6 0 10 0;
#X connect 7 0 4 0;
#X connect 8 0 2 0;
#X connect 9 0 3 0;
#X restore 202 19 pd p;
#N canvas 445 245 450 300 ¨ 0;
#X obj 15 -155 inlet;
#X obj 59 -117 s actramp;
#X obj 15 -61 s lineA;
#X obj 38 -42 s volL;
#X obj 121 -42 s volR;
#X obj 15 -136 t b b b;
#X msg 98 -98 0;
#X msg 121 -79 0;
#X msg 15 -98 0;
#X msg 38 -79 0;
#X obj 98 -61 s lineB;
#X connect 0 0 5 0;
#X connect 5 0 6 0;
#X connect 5 0 8 0;
#X connect 5 1 7 0;
#X connect 5 1 9 0;
#X connect 5 2 1 0;
#X connect 6 0 10 0;
#X connect 7 0 4 0;
#X connect 8 0 2 0;
#X connect 9 0 3 0;
#X restore 236 19 pd ¨;
#X obj -104 -344 unpack 0 0;
#X obj -104 -282 route 49 50 51 52 53 54 55 56 57;
#X obj 159 -281 route 1 2 3 4 5 6 7 8 9;
#X obj 216 -158 route 10 11 12 13 14 15 16 17 18 19 20 21;
#X obj 266 -47 route 22 23 24 25 26 27 28 29 30 31 32;
#X obj 475 -369 r preset;
#X obj 166 102 route 33 34 35 36 37 38 39 40 41 42;
#X obj 173 213 route 43 44 45 46 47 48 49 50 51 52;
#X obj 104 324 route 53 54 55 56 57 58 59;
#X obj -104 83 key;
#X floatatom -76 83 5 0 0 0 - - -, f 5;
#X obj -104 194 key;
#X floatatom -76 194 5 0 0 0 - - -, f 5;
#X obj -104 305 key;
#X floatatom -76 305 5 0 0 0 - - -, f 5;
#X text -106 53 CAPS LOCK: ON;
#N canvas 436 257 450 300 Q 0;
#X obj 15 -155 inlet;
#X obj 59 -117 s actramp;
#X obj 15 -61 s lineA;
#X obj 38 -42 s volL;
#X obj 121 -42 s volR;
#X obj 15 -136 t b b b;
#X obj 98 -61 s lineB;
#X msg 15 -98 54.6376;
#X msg 37 -79 0.432046;
#X msg 98 -98 271.888;
#X msg 121 -79 0.177396;
#X connect 0 0 5 0;
#X connect 5 0 9 0;
#X connect 5 0 7 0;
#X connect 5 1 10 0;
#X connect 5 1 8 0;
#X connect 5 2 1 0;
#X connect 7 0 2 0;
#X connect 8 0 3 0;
#X connect 9 0 6 0;
#X connect 10 0 4 0;
#X restore -104 168 pd Q;
#N canvas 445 245 450 300 W 0;
#X obj 15 -155 inlet;
#X obj 59 -117 s actramp;
#X obj 15 -61 s lineA;
#X obj 38 -42 s volL;
#X obj 121 -42 s volR;
#X obj 15 -136 t b b b;
#X obj 98 -61 s lineB;
#X msg 15 -98 54.1376;
#X msg 38 -79 0.212598;
#X msg 98 -98 271.088;
#X msg 121 -79 0.535433;
#X connect 0 0 5 0;
#X connect 5 0 9 0;
#X connect 5 0 7 0;
#X connect 5 1 10 0;
#X connect 5 1 8 0;
#X connect 5 2 1 0;
#X connect 7 0 2 0;
#X connect 8 0 3 0;
#X connect 9 0 6 0;
#X connect 10 0 4 0;
#X restore -70 168 pd W;
#N canvas 445 245 450 300 E 0;
#X obj 15 -155 inlet;
#X obj 59 -117 s actramp;
#X obj 15 -61 s lineA;
#X obj 38 -42 s volL;
#X obj 121 -42 s volR;
#X obj 15 -136 t b b b;
#X obj 98 -61 s lineB;
#X msg 15 -97 12.7376;
#X msg 38 -79 0.188976;
#X msg 98 -98 186.088;
#X msg 121 -79 0.740157;
#X connect 0 0 5 0;
#X connect 5 0 9 0;
#X connect 5 0 7 0;
#X connect 5 1 10 0;
#X connect 5 1 8 0;
#X connect 5 2 1 0;
#X connect 7 0 2 0;
#X connect 8 0 3 0;
#X connect 9 0 6 0;
#X connect 10 0 4 0;
#X restore -36 168 pd E;
#N canvas 445 245 450 300 R 0;
#X obj 15 -155 inlet;
#X obj 59 -117 s actramp;
#X obj 15 -61 s lineA;
#X obj 38 -42 s volL;
#X obj 121 -42 s volR;
#X obj 15 -136 t b b b;
#X obj 98 -61 s lineB;
#X msg 15 -98 70.95;
#X msg 38 -79 0.411;
#X msg 98 -98 106.608;
#X msg 121 -79 0.427;
#X connect 0 0 5 0;
#X connect 5 0 9 0;
#X connect 5 0 7 0;
#X connect 5 1 10 0;
#X connect 5 1 8 0;
#X connect 5 2 1 0;
#X connect 7 0 2 0;
#X connect 8 0 3 0;
#X connect 9 0 6 0;
#X connect 10 0 4 0;
#X restore -2 168 pd R;
#N canvas 381 348 450 300 T 0;
#X obj 15 -155 inlet;
#X obj 59 -117 s actramp;
#X obj 15 -61 s lineA;
#X obj 38 -42 s volL;
#X obj 121 -42 s volR;
#X obj 15 -136 t b b b;
#X obj 98 -61 s lineB;
#X msg 15 -98 61.4063;
#X msg 38 -79 0.268369;
#X msg 98 -98 61.8026;
#X msg 121 -79 0.460644;
#X connect 0 0 5 0;
#X connect 5 0 9 0;
#X connect 5 0 7 0;
#X connect 5 1 10 0;
#X connect 5 1 8 0;
#X connect 5 2 1 0;
#X connect 7 0 2 0;
#X connect 8 0 3 0;
#X connect 9 0 6 0;
#X connect 10 0 4 0;
#X restore 32 168 pd T;
#N canvas 445 245 450 300 Y 0;
#X obj 15 -155 inlet;
#X obj 59 -117 s actramp;
#X obj 15 -61 s lineA;
#X obj 38 -42 s volL;
#X obj 121 -42 s volR;
#X obj 15 -136 t b b b;
#X obj 98 -61 s lineB;
#X msg 15 -98 50.547;
#X msg 38 -79 0.076;
#X msg 98 -98 0;
#X msg 121 -79 0.001;
#X connect 0 0 5 0;
#X connect 5 0 9 0;
#X connect 5 0 7 0;
#X connect 5 1 10 0;
#X connect 5 1 8 0;
#X connect 5 2 1 0;
#X connect 7 0 2 0;
#X connect 8 0 3 0;
#X connect 9 0 6 0;
#X connect 10 0 4 0;
#X restore 66 168 pd Y;
#N canvas 445 245 450 300 U 0;
#X obj 15 -155 inlet;
#X obj 59 -117 s actramp;
#X obj 15 -61 s lineA;
#X obj 38 -42 s volL;
#X obj 121 -42 s volR;
#X obj 15 -136 t b b b;
#X obj 98 -61 s lineB;
#X msg 15 -98 64.47;
#X msg 38 -79 0.086;
#X msg 98 -98 322.9;
#X msg 121 -79 0.148;
#X connect 0 0 5 0;
#X connect 5 0 9 0;
#X connect 5 0 7 0;
#X connect 5 1 10 0;
#X connect 5 1 8 0;
#X connect 5 2 1 0;
#X connect 7 0 2 0;
#X connect 8 0 3 0;
#X connect 9 0 6 0;
#X connect 10 0 4 0;
#X restore 100 168 pd U;
#N canvas 445 245 450 300 I 0;
#X obj 15 -155 inlet;
#X obj 59 -117 s actramp;
#X obj 15 -61 s lineA;
#X obj 38 -42 s volL;
#X obj 121 -42 s volR;
#X obj 15 -136 t b b b;
#X obj 98 -61 s lineB;
#X msg 15 -98 88.13;
#X msg 38 -79 0.324;
#X msg 98 -98 352.75;
#X msg 121 -79 0.313;
#X connect 0 0 5 0;
#X connect 5 0 9 0;
#X connect 5 0 7 0;
#X connect 5 1 10 0;
#X connect 5 1 8 0;
#X connect 5 2 1 0;
#X connect 7 0 2 0;
#X connect 8 0 3 0;
#X connect 9 0 6 0;
#X connect 10 0 4 0;
#X restore 134 168 pd I;
#N canvas 445 245 450 300 O 0;
#X obj 15 -155 inlet;
#X obj 59 -117 s actramp;
#X obj 15 -61 s lineA;
#X obj 38 -42 s volL;
#X obj 121 -42 s volR;
#X obj 15 -136 t b b b;
#X obj 98 -61 s lineB;
#X msg 15 -98 52.09;
#X msg 38 -79 0.227;
#X msg 98 -98 81.91;
#X msg 121 -79 0.229;
#X connect 0 0 5 0;
#X connect 5 0 9 0;
#X connect 5 0 7 0;
#X connect 5 1 10 0;
#X connect 5 1 8 0;
#X connect 5 2 1 0;
#X connect 7 0 2 0;
#X connect 8 0 3 0;
#X connect 9 0 6 0;
#X connect 10 0 4 0;
#X restore 168 168 pd O;
#N canvas 445 245 450 300 P 0;
#X obj 15 -155 inlet;
#X obj 59 -117 s actramp;
#X obj 15 -61 s lineA;
#X obj 38 -42 s volL;
#X obj 121 -42 s volR;
#X obj 15 -136 t b b b;
#X obj 98 -61 s lineB;
#X msg 15 -98 52.09;
#X msg 38 -79 0.227;
#X msg 121 -79 0.229;
#X msg 98 -98 79.2;
#X connect 0 0 5 0;
#X connect 5 0 10 0;
#X connect 5 0 7 0;
#X connect 5 1 9 0;
#X connect 5 1 8 0;
#X connect 5 2 1 0;
#X connect 7 0 2 0;
#X connect 8 0 3 0;
#X connect 9 0 4 0;
#X connect 10 0 6 0;
#X restore 202 168 pd P;
#X obj -104 102 route 81 87 69 82 84 89 85 73 79 80;
#N canvas 445 245 450 300 A 0;
#X obj 15 -155 inlet;
#X obj 59 -117 s actramp;
#X obj 15 -61 s lineA;
#X obj 38 -42 s volL;
#X obj 121 -42 s volR;
#X obj 15 -136 t b b b;
#X obj 98 -61 s lineB;
#X msg 15 -98 52.09;
#X msg 38 -79 0.227;
#X msg 98 -98 154.71;
#X msg 121 -79 0.229;
#X connect 0 0 5 0;
#X connect 5 0 9 0;
#X connect 5 0 7 0;
#X connect 5 1 10 0;
#X connect 5 1 8 0;
#X connect 5 2 1 0;
#X connect 7 0 2 0;
#X connect 8 0 3 0;
#X connect 9 0 6 0;
#X connect 10 0 4 0;
#X restore -104 279 pd A;
#N canvas 445 245 450 300 S 0;
#X obj 15 -155 inlet;
#X obj 59 -117 s actramp;
#X obj 15 -61 s lineA;
#X obj 38 -42 s volL;
#X obj 121 -42 s volR;
#X obj 15 -136 t b b b;
#X obj 98 -61 s lineB;
#X msg 15 -98 56.15;
#X msg 38 -79 0.227;
#X msg 98 -98 154.71;
#X msg 121 -79 0.229;
#X connect 0 0 5 0;
#X connect 5 0 9 0;
#X connect 5 0 7 0;
#X connect 5 1 10 0;
#X connect 5 1 8 0;
#X connect 5 2 1 0;
#X connect 7 0 2 0;
#X connect 8 0 3 0;
#X connect 9 0 6 0;
#X connect 10 0 4 0;
#X restore -70 279 pd S;
#N canvas 445 245 450 300 D 0;
#X obj 15 -155 inlet;
#X obj 59 -117 s actramp;
#X obj 15 -61 s lineA;
#X obj 38 -42 s volL;
#X obj 121 -42 s volR;
#X obj 15 -136 t b b b;
#X obj 98 -61 s lineB;
#X msg 15 -98 249.76;
#X msg 38 -79 0.156;
#X msg 98 -98 232.77;
#X msg 121 -79 0.163;
#X connect 0 0 5 0;
#X connect 5 0 9 0;
#X connect 5 0 7 0;
#X connect 5 1 10 0;
#X connect 5 1 8 0;
#X connect 5 2 1 0;
#X connect 7 0 2 0;
#X connect 8 0 3 0;
#X connect 9 0 6 0;
#X connect 10 0 4 0;
#X restore -36 279 pd D;
#N canvas 445 245 450 300 F 0;
#X obj 15 -155 inlet;
#X obj 59 -117 s actramp;
#X obj 15 -61 s lineA;
#X obj 38 -42 s volL;
#X obj 121 -42 s volR;
#X obj 15 -136 t b b b;
#X obj 98 -61 s lineB;
#X msg 15 -98 279.22;
#X msg 38 -79 0.167;
#X msg 98 -98 232.77;
#X msg 121 -79 0.163;
#X connect 0 0 5 0;
#X connect 5 0 9 0;
#X connect 5 0 7 0;
#X connect 5 1 10 0;
#X connect 5 1 8 0;
#X connect 5 2 1 0;
#X connect 7 0 2 0;
#X connect 8 0 3 0;
#X connect 9 0 6 0;
#X connect 10 0 4 0;
#X restore -2 279 pd F;
#N canvas 445 245 450 300 G 0;
#X obj 15 -155 inlet;
#X obj 59 -117 s actramp;
#X obj 15 -61 s lineA;
#X obj 38 -42 s volL;
#X obj 121 -42 s volR;
#X obj 15 -136 t b b b;
#X obj 98 -61 s lineB;
#X msg 15 -98 126.71;
#X msg 38 -79 0.065;
#X msg 98 -98 358.47;
#X msg 121 -79 0.13;
#X connect 0 0 5 0;
#X connect 5 0 9 0;
#X connect 5 0 7 0;
#X connect 5 1 10 0;
#X connect 5 1 8 0;
#X connect 5 2 1 0;
#X connect 7 0 2 0;
#X connect 8 0 3 0;
#X connect 9 0 6 0;
#X connect 10 0 4 0;
#X restore 32 279 pd G;
#N canvas 619 252 450 300 H 0;
#X obj 15 -155 inlet;
#X obj 59 -117 s actramp;
#X obj 15 -61 s lineA;
#X obj 38 -42 s volL;
#X obj 121 -42 s volR;
#X obj 15 -136 t b b b;
#X obj 98 -61 s lineB;
#X msg 15 -98 0;
#X msg 38 -79 0;
#X msg 98 -98 0;
#X msg 121 -79 0;
#X connect 0 0 5 0;
#X connect 5 0 9 0;
#X connect 5 0 7 0;
#X connect 5 1 10 0;
#X connect 5 1 8 0;
#X connect 5 2 1 0;
#X connect 7 0 2 0;
#X connect 8 0 3 0;
#X connect 9 0 6 0;
#X connect 10 0 4 0;
#X restore 66 279 pd H;
#N canvas 605 274 450 300 J 0;
#X obj 15 -155 inlet;
#X obj 59 -117 s actramp;
#X obj 15 -61 s lineA;
#X obj 38 -42 s volL;
#X obj 121 -42 s volR;
#X obj 15 -136 t b b b;
#X obj 98 -61 s lineB;
#X msg 15 -98 0;
#X msg 38 -79 0;
#X msg 98 -98 0;
#X msg 120 -79 0;
#X connect 0 0 5 0;
#X connect 5 0 9 0;
#X connect 5 0 7 0;
#X connect 5 1 10 0;
#X connect 5 1 8 0;
#X connect 5 2 1 0;
#X connect 7 0 2 0;
#X connect 8 0 3 0;
#X connect 9 0 6 0;
#X connect 10 0 4 0;
#X restore 100 279 pd J;
#N canvas 549 236 450 300 K 0;
#X obj 15 -155 inlet;
#X obj 59 -117 s actramp;
#X obj 15 -61 s lineA;
#X obj 38 -42 s volL;
#X obj 121 -42 s volR;
#X obj 15 -136 t b b b;
#X obj 98 -61 s lineB;
#X msg 15 -98 0;
#X msg 98 -98 0;
#X msg 121 -79 0;
#X msg 38 -79 0;
#X connect 0 0 5 0;
#X connect 5 0 8 0;
#X connect 5 0 7 0;
#X connect 5 1 9 0;
#X connect 5 1 10 0;
#X connect 5 2 1 0;
#X connect 7 0 2 0;
#X connect 8 0 6 0;
#X connect 9 0 4 0;
#X connect 10 0 3 0;
#X restore 134 279 pd K;
#N canvas 553 265 450 300 L 0;
#X obj 15 -155 inlet;
#X obj 59 -117 s actramp;
#X obj 15 -61 s lineA;
#X obj 38 -42 s volL;
#X obj 121 -42 s volR;
#X obj 15 -136 t b b b;
#X obj 98 -61 s lineB;
#X msg 15 -98 0;
#X msg 38 -79 0;
#X msg 98 -98 0;
#X msg 121 -79 0;
#X connect 0 0 5 0;
#X connect 5 0 9 0;
#X connect 5 0 7 0;
#X connect 5 1 10 0;
#X connect 5 1 8 0;
#X connect 5 2 1 0;
#X connect 7 0 2 0;
#X connect 8 0 3 0;
#X connect 9 0 6 0;
#X connect 10 0 4 0;
#X restore 168 279 pd L;
#N canvas 445 245 450 300 Ñ 0;
#X obj 15 -155 inlet;
#X obj 59 -117 s actramp;
#X obj 15 -61 s lineA;
#X obj 38 -42 s volL;
#X obj 121 -42 s volR;
#X obj 15 -136 t b b b;
#X msg 98 -98 0;
#X msg 121 -79 0;
#X msg 15 -98 0;
#X msg 38 -79 0;
#X obj 98 -61 s lineB;
#X connect 0 0 5 0;
#X connect 5 0 6 0;
#X connect 5 0 8 0;
#X connect 5 1 7 0;
#X connect 5 1 9 0;
#X connect 5 2 1 0;
#X connect 6 0 10 0;
#X connect 7 0 4 0;
#X connect 8 0 2 0;
#X connect 9 0 3 0;
#X restore 202 279 pd Ñ;
#X obj -104 213 route 65 83 68 70 71 72 74 75 76 209;
#N canvas 445 245 450 300 Z 0;
#X obj 15 -155 inlet;
#X obj 59 -117 s actramp;
#X obj 15 -61 s lineA;
#X obj 38 -42 s volL;
#X obj 121 -42 s volR;
#X obj 15 -136 t b b b;
#X obj 98 -61 s lineB;
#X msg 15 -98 0;
#X msg 38 -79 0;
#X msg 98 -98 0;
#X msg 121 -79 0;
#X connect 0 0 5 0;
#X connect 5 0 9 0;
#X connect 5 0 7 0;
#X connect 5 1 10 0;
#X connect 5 1 8 0;
#X connect 5 2 1 0;
#X connect 7 0 2 0;
#X connect 8 0 3 0;
#X connect 9 0 6 0;
#X connect 10 0 4 0;
#X restore -104 390 pd Z;
#N canvas 445 245 450 300 X 0;
#X obj 15 -155 inlet;
#X obj 59 -117 s actramp;
#X obj 15 -61 s lineA;
#X obj 38 -42 s volL;
#X obj 121 -42 s volR;
#X obj 15 -136 t b b b;
#X obj 98 -61 s lineB;
#X msg 15 -98 0;
#X msg 38 -79 0;
#X msg 98 -98 0;
#X msg 121 -79 0;
#X connect 0 0 5 0;
#X connect 5 0 9 0;
#X connect 5 0 7 0;
#X connect 5 1 10 0;
#X connect 5 1 8 0;
#X connect 5 2 1 0;
#X connect 7 0 2 0;
#X connect 8 0 3 0;
#X connect 9 0 6 0;
#X connect 10 0 4 0;
#X restore -70 390 pd X;
#N canvas 445 245 450 300 C 0;
#X obj 15 -155 inlet;
#X obj 59 -117 s actramp;
#X obj 15 -61 s lineA;
#X obj 38 -42 s volL;
#X obj 121 -42 s volR;
#X obj 15 -136 t b b b;
#X obj 98 -61 s lineB;
#X msg 15 -98 0;
#X msg 38 -79 0;
#X msg 98 -98 0;
#X msg 121 -79 0;
#X connect 0 0 5 0;
#X connect 5 0 9 0;
#X connect 5 0 7 0;
#X connect 5 1 10 0;
#X connect 5 1 8 0;
#X connect 5 2 1 0;
#X connect 7 0 2 0;
#X connect 8 0 3 0;
#X connect 9 0 6 0;
#X connect 10 0 4 0;
#X restore -36 390 pd C;
#N canvas 445 245 450 300 V 0;
#X obj 15 -155 inlet;
#X obj 59 -117 s actramp;
#X obj 15 -61 s lineA;
#X obj 38 -42 s volL;
#X obj 121 -42 s volR;
#X obj 15 -136 t b b b;
#X obj 98 -61 s lineB;
#X msg 15 -98 0;
#X msg 38 -79 0;
#X msg 98 -98 0;
#X msg 121 -79 0;
#X connect 0 0 5 0;
#X connect 5 0 9 0;
#X connect 5 0 7 0;
#X connect 5 1 10 0;
#X connect 5 1 8 0;
#X connect 5 2 1 0;
#X connect 7 0 2 0;
#X connect 8 0 3 0;
#X connect 9 0 6 0;
#X connect 10 0 4 0;
#X restore -2 390 pd V;
#N canvas 445 245 450 300 B 0;
#X obj 15 -155 inlet;
#X obj 59 -117 s actramp;
#X obj 15 -61 s lineA;
#X obj 38 -42 s volL;
#X obj 121 -42 s volR;
#X obj 15 -136 t b b b;
#X obj 98 -61 s lineB;
#X msg 15 -98 0;
#X msg 38 -79 0;
#X msg 98 -98 0;
#X msg 121 -79 0;
#X connect 0 0 5 0;
#X connect 5 0 9 0;
#X connect 5 0 7 0;
#X connect 5 1 10 0;
#X connect 5 1 8 0;
#X connect 5 2 1 0;
#X connect 7 0 2 0;
#X connect 8 0 3 0;
#X connect 9 0 6 0;
#X connect 10 0 4 0;
#X restore 32 390 pd B;
#N canvas 619 252 450 300 N 0;
#X obj 15 -155 inlet;
#X obj 59 -117 s actramp;
#X obj 15 -61 s lineA;
#X obj 38 -42 s volL;
#X obj 121 -42 s volR;
#X obj 15 -136 t b b b;
#X obj 98 -61 s lineB;
#X msg 15 -98 0;
#X msg 38 -79 0;
#X msg 98 -98 0;
#X msg 121 -79 0;
#X connect 0 0 5 0;
#X connect 5 0 9 0;
#X connect 5 0 7 0;
#X connect 5 1 10 0;
#X connect 5 1 8 0;
#X connect 5 2 1 0;
#X connect 7 0 2 0;
#X connect 8 0 3 0;
#X connect 9 0 6 0;
#X connect 10 0 4 0;
#X restore 66 390 pd N;
#N canvas 605 274 450 300 M 0;
#X obj 15 -155 inlet;
#X obj 59 -117 s actramp;
#X obj 15 -61 s lineA;
#X obj 38 -42 s volL;
#X obj 121 -42 s volR;
#X obj 15 -136 t b b b;
#X obj 98 -61 s lineB;
#X msg 15 -98 0;
#X msg 38 -79 0;
#X msg 98 -98 0;
#X msg 121 -79 0;
#X connect 0 0 5 0;
#X connect 5 0 9 0;
#X connect 5 0 7 0;
#X connect 5 1 10 0;
#X connect 5 1 8 0;
#X connect 5 2 1 0;
#X connect 7 0 2 0;
#X connect 8 0 3 0;
#X connect 9 0 6 0;
#X connect 10 0 4 0;
#X restore 100 390 pd M;
#X obj -104 324 route 90 88 67 86 66 78 77;
#X connect 0 0 1 0;
#X connect 0 0 2 0;
#X connect 2 0 3 0;
#X connect 2 1 4 0;
#X connect 2 2 5 0;
#X connect 2 3 6 0;
#X connect 2 4 7 0;
#X connect 2 5 8 0;
#X connect 2 6 9 0;
#X connect 2 7 10 0;
#X connect 2 8 11 0;
#X connect 2 9 12 0;
#X connect 2 10 13 0;
#X connect 2 11 14 0;
#X connect 15 0 16 0;
#X connect 15 0 21 0;
#X connect 17 1 18 0;
#X connect 18 0 19 0;
#X connect 19 0 42 0;
#X connect 21 0 31 0;
#X connect 21 1 32 0;
#X connect 21 2 33 0;
#X connect 21 3 34 0;
#X connect 21 4 35 0;
#X connect 21 5 36 0;
#X connect 21 6 37 0;
#X connect 21 7 38 0;
#X connect 21 8 39 0;
#X connect 21 9 40 0;
#X connect 21 10 41 0;
#X connect 42 1 20 0;
#X connect 42 1 43 0;
#X connect 43 0 22 0;
#X connect 43 1 23 0;
#X connect 43 2 24 0;
#X connect 43 3 25 0;
#X connect 43 4 26 0;
#X connect 43 5 27 0;
#X connect 43 6 28 0;
#X connect 43 7 29 0;
#X connect 43 8 30 0;
#X connect 44 0 22 0;
#X connect 44 1 23 0;
#X connect 44 2 24 0;
#X connect 44 3 25 0;
#X connect 44 4 26 0;
#X connect 44 5 27 0;
#X connect 44 6 28 0;
#X connect 44 7 29 0;
#X connect 44 8 30 0;
#X connect 45 0 3 0;
#X connect 45 1 4 0;
#X connect 45 2 5 0;
#X connect 45 3 6 0;
#X connect 45 4 7 0;
#X connect 45 5 8 0;
#X connect 45 6 9 0;
#X connect 45 7 10 0;
#X connect 45 8 11 0;
#X connect 45 9 12 0;
#X connect 45 10 13 0;
#X connect 45 11 14 0;
#X connect 46 0 31 0;
#X connect 46 1 32 0;
#X connect 46 2 33 0;
#X connect 46 3 34 0;
#X connect 46 4 35 0;
#X connect 46 5 36 0;
#X connect 46 6 37 0;
#X connect 46 7 38 0;
#X connect 46 8 39 0;
#X connect 46 9 40 0;
#X connect 46 10 41 0;
#X connect 47 0 44 0;
#X connect 47 0 45 0;
#X connect 47 0 46 0;
#X connect 47 0 48 0;
#X connect 47 0 49 0;
#X connect 47 0 50 0;
#X connect 48 0 58 0;
#X connect 48 1 59 0;
#X connect 48 2 60 0;
#X connect 48 3 61 0;
#X connect 48 4 62 0;
#X connect 48 5 63 0;
#X connect 48 6 64 0;
#X connect 48 7 65 0;
#X connect 48 8 66 0;
#X connect 48 9 67 0;
#X connect 49 0 69 0;
#X connect 49 1 70 0;
#X connect 49 2 71 0;
#X connect 49 3 72 0;
#X connect 49 4 73 0;
#X connect 49 5 74 0;
#X connect 49 6 75 0;
#X connect 49 7 76 0;
#X connect 49 8 77 0;
#X connect 49 9 78 0;
#X connect 50 0 80 0;
#X connect 50 1 81 0;
#X connect 50 2 82 0;
#X connect 50 3 83 0;
#X connect 50 4 84 0;
#X connect 50 5 85 0;
#X connect 50 6 86 0;
#X connect 51 0 52 0;
#X connect 51 0 68 0;
#X connect 53 0 54 0;
#X connect 53 0 79 0;
#X connect 55 0 56 0;
#X connect 55 0 87 0;
#X connect 68 0 58 0;
#X connect 68 1 59 0;
#X connect 68 2 60 0;
#X connect 68 3 61 0;
#X connect 68 4 62 0;
#X connect 68 5 63 0;
#X connect 68 6 64 0;
#X connect 68 7 65 0;
#X connect 68 8 66 0;
#X connect 68 9 67 0;
#X connect 79 0 69 0;
#X connect 79 1 70 0;
#X connect 79 2 71 0;
#X connect 79 3 72 0;
#X connect 79 4 73 0;
#X connect 79 5 74 0;
#X connect 79 6 75 0;
#X connect 79 7 76 0;
#X connect 79 8 77 0;
#X connect 79 9 78 0;
#X connect 87 0 80 0;
#X connect 87 1 81 0;
#X connect 87 2 82 0;
#X connect 87 3 83 0;
#X connect 87 4 84 0;
#X connect 87 5 85 0;
#X connect 87 6 86 0;
#X restore 689 1 pd keyPress;
#X obj 297 21 r rampval;
#X obj 285 42 line;
#X obj 285 81 osc~;
#X floatatom 402 62 16 0 1 0 - - -, f 16;
#X obj 414 21 r rampval;
#X floatatom 285 62 16 0 0 0 - - -, f 16;
#X obj 402 42 line;
#X obj 285 1 r lineB;
#X obj 402 1 r volR;
#X obj 168 80 s volfv;
#X obj 402 80 s volhn;
#N canvas 27 50 434 423 fv 0;
#X obj 70 350 outlet;
#X msg 9 78 1;
#X msg 66 78 0;
#X msg 129 79 1;
#X msg 186 80 0;
#X obj 9 98 t b b b;
#X obj 9 129 tgl 15 0 empty empty empty 17 7 0 10 -262144 -1 -1 0 1
;
#X obj 9 155 metro 33;
#X obj 9 181 i;
#X obj 9 205 +;
#X msg 37 181 1;
#X floatatom 70 270 5 0 0 0 - - -, f 5;
#X obj 9 251 loadbang;
#X msg 9 272 0;
#X obj 9 7 key;
#X obj 129 99 t b b b;
#X obj 129 130 tgl 15 0 empty empty empty 17 7 0 10 -262144 -1 -1 0
1;
#X obj 129 156 metro 33;
#X obj 129 181 i;
#X msg 157 181 1;
#X obj 129 205 -;
#X obj 129 7 keyup;
#X obj 193 156 i;
#X obj 73 155 i;
#X obj 9 58 sel 102;
#X obj 66 58 sel 102;
#X obj 129 59 sel 118;
#X obj 186 59 sel 118;
#X obj 9 229 moses 0;
#X obj 309 350 outlet;
#X obj 309 7 r volfv;
#X obj 70 229 moses 1001;
#X obj 70 308 / 1000;
#X connect 1 0 5 0;
#X connect 2 0 6 0;
#X connect 3 0 15 0;
#X connect 4 0 16 0;
#X connect 5 0 6 0;
#X connect 5 1 10 0;
#X connect 5 2 23 0;
#X connect 6 0 7 0;
#X connect 7 0 8 0;
#X connect 8 0 9 0;
#X connect 9 0 8 1;
#X connect 9 0 28 0;
#X connect 10 0 9 1;
#X connect 11 0 22 1;
#X connect 11 0 23 1;
#X connect 11 0 32 0;
#X connect 12 0 13 0;
#X connect 13 0 11 0;
#X connect 14 0 24 0;
#X connect 14 0 26 0;
#X connect 15 0 16 0;
#X connect 15 1 19 0;
#X connect 15 2 22 0;
#X connect 16 0 17 0;
#X connect 17 0 18 0;
#X connect 18 0 20 0;
#X connect 19 0 20 1;
#X connect 20 0 18 1;
#X connect 20 0 28 0;
#X connect 21 0 25 0;
#X connect 21 0 27 0;
#X connect 22 0 18 1;
#X connect 23 0 8 1;
#X connect 24 0 1 0;
#X connect 25 0 2 0;
#X connect 26 0 3 0;
#X connect 27 0 4 0;
#X connect 28 1 31 0;
#X connect 30 0 29 0;
#X connect 31 0 11 0;
#X connect 32 0 0 0;
#X restore 519 1 pd fv;
#X text 639 70 G;
#X text 639 104 B;
#X obj 689 155 bng 18 250 50 0 empty empty empty 17 7 0 10 -262144
-1 -1;
#X floatatom 832 73 5 0 0 0 - - -, f 5;
#X floatatom 903 73 10 0 0 0 - - -, f 10;
#X obj 832 21 unpack f f f;
#X floatatom 978 73 10 0 0 0 - - -, f 10;
#X obj 832 91 s preset;
#X obj 832 1 r list;
#X obj 895 91 delay;
#X obj 978 91 s actramp;
#X obj 895 41 t b f;
#X obj 687 244 f1;
#X obj 716 244 f2;
#X obj 745 244 f3;
#X obj 774 244 f4;
#X obj 803 244 f5;
#X obj 832 244 f6;
#X obj 861 244 f7;
#X obj 890 244 f8;
#X obj 919 244 f9;
#X text 691 227 1;
#X text 721 227 2;
#X text 751 227 3;
#X text 781 227 4;
#X text 809 227 5;
#X text 837 227 6;
#X text 867 227 7;
#X text 896 227 8;
#X text 923 227 9;
#X obj 687 284 1;
#X obj 716 284 2;
#X obj 745 284 3;
#X obj 774 284 4;
#X obj 803 284 5;
#X obj 832 284 6;
#X obj 861 284 7;
#X obj 890 284 8;
#X obj 919 284 9;
#X obj 948 284 0;
#X obj 977 284 ?;
#X obj 1006 284 ¡;
#X text 691 267 10;
#X text 721 267 11;
#X text 751 267 12;
#X text 781 267 13;
#X text 809 267 14;
#X text 837 267 15;
#X text 867 267 16;
#X text 896 267 17;
#X text 923 267 18;
#X text 950 267 19;
#X text 979 267 20;
#X text 1006 267 21;
#X text 691 307 22;
#X text 721 307 23;
#X text 751 307 24;
#X text 781 307 25;
#X text 809 307 26;
#X text 837 307 27;
#X text 867 307 28;
#X text 896 307 29;
#X text 923 307 30;
#X text 950 307 31;
#X text 979 307 32;
#X obj 687 324 q;
#X obj 716 324 w;
#X obj 745 324 e;
#X obj 774 324 r;
#X obj 803 324 t;
#X obj 832 324 y;
#X obj 861 324 u;
#X obj 890 324 i;
#X obj 919 324 o;
#X obj 947 324 p;
#X obj 977 324 ¨;
#N canvas 192 50 764 728 score 0;
#X msg 240 361 rewind;
#X obj 233 394 textfile;
#X text 197 488 preset duracion rampa;
#X obj 233 442 s list;
#X obj 240 299 loadbang;
#X obj 240 320 t b b;
#X msg 275 341 read score.txt;
#X obj 233 252 inlet;
#X obj 275 252 inlet;
#X obj 317 252 inlet;
#X obj 154 365 metro 1000;
#X obj 154 386 i;
#X obj 191 386 + 1;
#X obj 154 343 t b 0;
#X obj 154 407 * 1000;
#X obj 154 442 outlet;
#X obj 436 376 i;
#X obj 473 376 + 1;
#X obj 436 442 outlet;
#X obj 179 320 t b 0 0;
#X obj 436 332 t b 0;
#X obj 154 286 r actramp;
#X obj 289 421 unpack 0 0 0;
#X obj 289 446 pack 0 0 0 0;
#X obj 289 468 print;
#X connect 0 0 1 0;
#X connect 1 0 3 0;
#X connect 1 0 22 0;
#X connect 4 0 5 0;
#X connect 5 0 0 0;
#X connect 5 1 6 0;
#X connect 6 0 1 0;
#X connect 7 0 1 0;
#X connect 7 0 13 0;
#X connect 7 0 16 0;
#X connect 8 0 6 0;
#X connect 9 0 0 0;
#X connect 9 0 19 0;
#X connect 9 0 20 0;
#X connect 10 0 11 0;
#X connect 11 0 12 0;
#X connect 11 0 14 0;
#X connect 12 0 11 1;
#X connect 13 0 10 0;
#X connect 13 1 11 1;
#X connect 14 0 15 0;
#X connect 16 0 17 0;
#X connect 16 0 18 0;
#X connect 16 0 23 0;
#X connect 17 0 16 1;
#X connect 19 0 11 0;
#X connect 19 1 11 1;
#X connect 19 2 10 0;
#X connect 20 0 16 0;
#X connect 20 1 16 1;
#X connect 21 0 13 0;
#X connect 22 0 23 1;
#X connect 22 1 23 2;
#X connect 22 2 23 3;
#X connect 23 0 24 0;
#X restore 689 177 pd score;
#X text 471 469 Editar: Ctrl + E;
#X text 471 483 Sonido On: Ctrl + Shift + 7;
#X text 471 497 Sonido Off: Ctrl + .;
#X obj 710 155 bng 18 250 50 0 empty empty empty 17 7 0 10 -262144
-1 -1;
#X obj 731 155 bng 18 250 50 0 empty empty empty 17 7 0 10 -262144
-1 -1;
#X obj 689 30 bng 60 250 50 0 empty empty empty 17 7 0 10 -262144 -1
-1;
#X obj 689 130 t b b b;
#X floatatom 689 208 10 0 0 0 - - -, f 10;
#X obj 687 416 Q;
#X obj 716 416 W;
#X obj 745 416 E;
#X obj 774 416 R;
#X obj 803 416 T;
#X obj 832 416 Y;
#X obj 861 416 U;
#X obj 890 416 I;
#X obj 919 416 O;
#X obj 948 416 P;
#X obj 687 456 A;
#X obj 716 456 S;
#X obj 745 456 D;
#X obj 774 456 F;
#X obj 803 456 G;
#X obj 832 456 H;
#X obj 861 456 J;
#X obj 890 456 K;
#X obj 919 456 L;
#X obj 948 456 Ñ;
#X obj 687 496 Z;
#X obj 716 496 X;
#X obj 745 496 C;
#X obj 774 496 V;
#X obj 803 496 B;
#X obj 832 496 N;
#X obj 861 496 M;
#X text 691 399 33;
#X text 721 399 34;
#X text 751 399 35;
#X text 781 399 36;
#X text 809 399 37;
#X text 837 399 38;
#X text 867 399 39;
#X text 896 399 40;
#X text 923 399 41;
#X text 952 399 42;
#X text 691 439 43;
#X text 721 439 44;
#X text 751 439 45;
#X text 782 439 46;
#X text 809 439 47;
#X text 837 439 48;
#X text 867 439 49;
#X text 896 439 50;
#X text 923 439 51;
#X text 952 439 52;
#X text 691 479 53;
#X text 721 479 54;
#X text 751 479 55;
#X text 781 479 56;
#X text 809 479 57;
#X text 837 479 58;
#X text 867 479 59;
#X text 684 381 CAPS LOCK: ON;
#X floatatom 764 208 5 0 0 0 - - -, f 5;
#X text 692 91 s t a r t;
#X text 692 101 r e a d;
#X text 692 112 r e w i n d;
#X text 763 192 line;
#X text 693 193 time;
#X text 828 57 preset;
#X obj 756 30 tgl 60 0 empty empty empty 0 -6 0 8 -262144 -1 -1 1 1
;
#X obj 832 122 spigot;
#X text 902 57 duration;
#X text 979 57 ramp;
#X text 756 50 on / off;
#X connect 0 0 1 1;
#X connect 0 0 23 0;
#X connect 1 0 9 0;
#X connect 2 0 3 1;
#X connect 2 0 22 0;
#X connect 3 0 9 1;
#X connect 4 0 6 0;
#X connect 4 0 17 0;
#X connect 5 0 4 0;
#X connect 7 0 8 1;
#X connect 8 0 24 0;
#X connect 10 0 8 0;
#X connect 11 0 4 0;
#X connect 14 0 2 0;
#X connect 14 1 2 0;
#X connect 15 0 1 0;
#X connect 18 0 25 0;
#X connect 19 0 36 0;
#X connect 20 0 25 1;
#X connect 24 0 15 0;
#X connect 25 0 19 0;
#X connect 27 0 28 1;
#X connect 28 0 32 0;
#X connect 29 0 3 0;
#X connect 30 0 37 0;
#X connect 31 0 33 1;
#X connect 32 0 29 0;
#X connect 33 0 30 0;
#X connect 34 0 28 0;
#X connect 35 0 33 0;
#X connect 38 0 0 0;
#X connect 38 1 0 0;
#X connect 41 0 115 0;
#X connect 42 0 46 0;
#X connect 43 0 48 0;
#X connect 44 0 42 0;
#X connect 44 1 50 0;
#X connect 44 2 45 0;
#X connect 45 0 49 0;
#X connect 47 0 44 0;
#X connect 48 0 187 0;
#X connect 50 0 48 0;
#X connect 50 1 43 0;
#X connect 115 0 123 0;
#X connect 115 1 179 0;
#X connect 119 0 115 1;
#X connect 120 0 115 2;
#X connect 121 0 122 0;
#X connect 122 0 41 0;
#X connect 122 1 120 0;
#X connect 122 2 119 0;
#X connect 186 0 187 1;
#X connect 187 0 41 0;
