#N canvas 170 0 1031 750 10;
#X obj 625 27 vsl 30 700 0 1 0 0 empty empty empty 0 -9 0 10 -262144
-1 -1 0 1;
#X obj 4 710 *~;
#X obj 963 26 vsl 30 700 0 1 0 0 empty empty empty 0 -9 0 10 -262144
-1 -1 0 1;
#X obj 31 710 *~;
#X obj 5 732 dac~;
#X text 634 32 F;
#X text 633 700 V;
#X obj 4 43 osc~;
#X obj 442 26 vsl 45 700 0 10000 0 0 empty empty empty 0 -9 0 10 -262144
-1 -1 0 1;
#X obj 505 26 vsl 30 700 0 1000 0 0 empty empty empty 0 -9 0 10 -262144
-1 -1 0 1;
#X floatatom 4 24 16 0 0 0 - - -, f 16;
#X obj 553 26 vsl 15 700 0 100 0 0 empty empty empty 0 -9 0 10 -262144
-1 -1 0 1;
#X obj 782 26 vsl 45 700 0 10000 0 0 empty empty empty 0 -9 0 10 -262144
-1 -1 0 1;
#X obj 845 26 vsl 30 700 0 1000 0 0 empty empty empty 0 -9 0 10 -262144
-1 -1 0 1;
#X obj 893 26 vsl 15 700 0 100 0 0 empty empty empty 0 -9 0 10 -262144
-1 -1 0 1;
#X obj 442 734 s l1;
#X obj 505 734 s l2;
#X obj 553 734 s l3;
#X obj 782 734 s r1;
#X obj 845 734 s r2;
#X obj 893 734 s r3;
#X obj 625 734 s fv;
#X obj 22 64 r fv;
#X floatatom 28 86 16 0 0 0 - - -, f 16;
#X obj 214 43 osc~;
#X floatatom 214 24 16 0 0 0 - - -, f 16;
#X floatatom 238 86 16 0 0 0 - - -, f 16;
#X obj 963 734 s gb;
#X obj 232 64 r gb;
#N canvas 262 253 450 300 l 0;
#X obj 132 207 outlet;
#X obj 132 184 expr $f1 + $f2 + $f3;
#X obj 132 130 r l1;
#X obj 200 130 r l2;
#X obj 269 130 r l3;
#X obj 200 152 t b f;
#X obj 269 152 t b f;
#X connect 1 0 0 0;
#X connect 2 0 1 0;
#X connect 3 0 5 0;
#X connect 4 0 6 0;
#X connect 5 0 1 0;
#X connect 5 1 1 1;
#X connect 6 0 1 0;
#X connect 6 1 1 2;
#X restore 4 3 pd l;
#N canvas 278 319 450 300 r 0;
#X obj 152 99 expr $f1 + $f2 + $f3;
#X obj 152 45 r r1;
#X obj 220 67 t b f;
#X obj 289 67 t b f;
#X obj 220 45 r r2;
#X obj 289 45 r r3;
#X obj 152 131 outlet;
#X connect 0 0 6 0;
#X connect 1 0 0 0;
#X connect 2 0 0 0;
#X connect 2 1 0 1;
#X connect 3 0 0 0;
#X connect 3 1 0 2;
#X connect 4 0 2 0;
#X connect 5 0 3 0;
#X restore 214 3 pd r;
#N canvas 173 87 434 423 fv 0;
#X obj 70 350 outlet;
#X msg 9 78 1;
#X msg 66 78 0;
#X msg 129 79 1;
#X msg 186 80 0;
#X obj 9 98 t b b b;
#X obj 9 129 tgl 15 0 empty empty empty 17 7 0 10 -262144 -1 -1 0 1
;
#X obj 9 155 metro 33;
#X obj 9 181 i;
#X obj 9 205 +;
#X msg 37 181 1;
#X floatatom 70 270 5 0 0 0 - - -, f 5;
#X obj 9 251 loadbang;
#X msg 9 272 0;
#X obj 9 7 key;
#X obj 129 99 t b b b;
#X obj 129 130 tgl 15 0 empty empty empty 17 7 0 10 -262144 -1 -1 0
1;
#X obj 129 156 metro 33;
#X obj 129 181 i;
#X msg 157 181 1;
#X obj 129 205 -;
#X obj 129 7 keyup;
#X obj 193 156 i;
#X obj 73 155 i;
#X obj 126 893 s sliderAZ;
#X obj 9 58 sel 102;
#X obj 66 58 sel 102;
#X obj 129 59 sel 118;
#X obj 186 59 sel 118;
#X obj 9 229 moses 0;
#X obj 70 229 moses 1001;
#X obj 70 308 / 1000;
#X obj 79 105 r fv;
#X obj 79 125 * 1000;
#X connect 1 0 5 0;
#X connect 2 0 6 0;
#X connect 3 0 15 0;
#X connect 4 0 16 0;
#X connect 5 0 6 0;
#X connect 5 1 10 0;
#X connect 5 2 23 0;
#X connect 6 0 7 0;
#X connect 7 0 8 0;
#X connect 8 0 9 0;
#X connect 9 0 8 1;
#X connect 9 0 29 0;
#X connect 10 0 9 1;
#X connect 11 0 22 1;
#X connect 11 0 23 1;
#X connect 11 0 31 0;
#X connect 12 0 13 0;
#X connect 13 0 11 0;
#X connect 14 0 25 0;
#X connect 14 0 27 0;
#X connect 15 0 16 0;
#X connect 15 1 19 0;
#X connect 15 2 22 0;
#X connect 16 0 17 0;
#X connect 17 0 18 0;
#X connect 18 0 20 0;
#X connect 19 0 20 1;
#X connect 20 0 18 1;
#X connect 20 0 29 0;
#X connect 21 0 26 0;
#X connect 21 0 28 0;
#X connect 22 0 18 1;
#X connect 23 0 8 1;
#X connect 25 0 1 0;
#X connect 26 0 2 0;
#X connect 27 0 3 0;
#X connect 28 0 4 0;
#X connect 29 1 30 0;
#X connect 30 0 11 0;
#X connect 31 0 0 0;
#X connect 32 0 33 0;
#X connect 33 0 23 1;
#X connect 33 0 22 1;
#X restore 625 3 pd fv;
#X text 458 34 A;
#X text 457 698 Z;
#X text 512 35 S;
#X text 514 697 X;
#X text 554 36 D;
#X text 553 697 C;
#X text 796 35 G;
#X text 797 698 B;
#X text 852 35 H;
#X text 854 698 N;
#X text 893 35 J;
#X text 894 698 M;
#X text 972 34 K;
#X text 971 700 \;;
#N canvas 708 139 396 396 az 0;
#X obj 70 350 outlet;
#X msg 9 78 1;
#X msg 66 78 0;
#X msg 129 79 1;
#X msg 186 80 0;
#X obj 9 98 t b b b;
#X obj 9 129 tgl 15 0 empty empty empty 17 7 0 10 -262144 -1 -1 0 1
;
#X obj 9 155 metro 33;
#X obj 9 205 +;
#X obj 9 251 loadbang;
#X msg 9 272 0;
#X obj 9 7 key;
#X obj 129 99 t b b b;
#X obj 129 130 tgl 15 0 empty empty empty 17 7 0 10 -262144 -1 -1 0
1;
#X obj 129 156 metro 33;
#X obj 129 205 -;
#X obj 129 7 keyup;
#X obj 9 229 moses 0;
#X obj 9 58 sel 97;
#X obj 66 58 sel 97;
#X obj 129 59 sel 122;
#X obj 186 59 sel 122;
#X obj 70 229 moses 10001;
#X msg 37 181 10;
#X msg 157 181 10;
#X obj 91 129 r l1;
#X obj 73 155 f;
#X obj 193 156 f;
#X obj 9 181 f;
#X obj 129 181 f;
#X floatatom 70 301 16 0 0 0 - - -, f 16;
#X connect 1 0 5 0;
#X connect 2 0 6 0;
#X connect 3 0 12 0;
#X connect 4 0 13 0;
#X connect 5 0 6 0;
#X connect 5 1 23 0;
#X connect 5 2 26 0;
#X connect 6 0 7 0;
#X connect 7 0 28 0;
#X connect 8 0 17 0;
#X connect 8 0 28 1;
#X connect 9 0 10 0;
#X connect 10 0 30 0;
#X connect 11 0 18 0;
#X connect 11 0 20 0;
#X connect 12 0 13 0;
#X connect 12 1 24 0;
#X connect 12 2 27 0;
#X connect 13 0 14 0;
#X connect 14 0 29 0;
#X connect 15 0 17 0;
#X connect 15 0 29 1;
#X connect 16 0 19 0;
#X connect 16 0 21 0;
#X connect 17 1 22 0;
#X connect 18 0 1 0;
#X connect 19 0 2 0;
#X connect 20 0 3 0;
#X connect 21 0 4 0;
#X connect 22 0 30 0;
#X connect 23 0 8 1;
#X connect 24 0 15 1;
#X connect 25 0 26 1;
#X connect 25 0 27 1;
#X connect 26 0 28 1;
#X connect 27 0 29 1;
#X connect 28 0 8 0;
#X connect 29 0 15 0;
#X connect 30 0 26 1;
#X connect 30 0 27 1;
#X connect 30 0 0 0;
#X restore 442 3 pd az;
#N canvas 241 50 354 393 k 0;
#X obj 126 893 s sliderAZ;
#X obj 70 350 outlet;
#X msg 9 78 1;
#X msg 66 78 0;
#X msg 129 79 1;
#X msg 186 80 0;
#X obj 9 98 t b b b;
#X obj 9 129 tgl 15 0 empty empty empty 17 7 0 10 -262144 -1 -1 0 1
;
#X obj 9 155 metro 33;
#X obj 9 181 i;
#X obj 9 205 +;
#X msg 37 181 1;
#X floatatom 70 270 5 0 0 0 - - -, f 5;
#X obj 9 251 loadbang;
#X msg 9 272 0;
#X obj 9 7 key;
#X obj 129 99 t b b b;
#X obj 129 130 tgl 15 0 empty empty empty 17 7 0 10 -262144 -1 -1 0
1;
#X obj 129 156 metro 33;
#X obj 129 181 i;
#X msg 157 181 1;
#X obj 129 205 -;
#X obj 129 7 keyup;
#X obj 193 156 i;
#X obj 73 155 i;
#X obj 9 229 moses 0;
#X floatatom 34 38 5 0 0 0 - - -, f 5;
#X floatatom 176 33 5 0 0 0 - - -, f 5;
#X obj 9 58 sel 107;
#X obj 66 58 sel 107;
#X obj 129 59 sel 44;
#X obj 186 59 sel 44;
#X obj 70 229 moses 1001;
#X obj 70 308 / 1000;
#X obj 79 125 * 1000;
#X obj 79 105 r gb;
#X connect 2 0 6 0;
#X connect 3 0 7 0;
#X connect 4 0 16 0;
#X connect 5 0 17 0;
#X connect 6 0 7 0;
#X connect 6 1 11 0;
#X connect 6 2 24 0;
#X connect 7 0 8 0;
#X connect 8 0 9 0;
#X connect 9 0 10 0;
#X connect 10 0 9 1;
#X connect 10 0 25 0;
#X connect 11 0 10 1;
#X connect 12 0 23 1;
#X connect 12 0 24 1;
#X connect 12 0 33 0;
#X connect 13 0 14 0;
#X connect 14 0 12 0;
#X connect 15 0 26 0;
#X connect 15 0 28 0;
#X connect 15 0 30 0;
#X connect 16 0 17 0;
#X connect 16 1 20 0;
#X connect 16 2 23 0;
#X connect 17 0 18 0;
#X connect 18 0 19 0;
#X connect 19 0 21 0;
#X connect 20 0 21 1;
#X connect 21 0 19 1;
#X connect 21 0 25 0;
#X connect 22 0 27 0;
#X connect 22 0 29 0;
#X connect 22 0 31 0;
#X connect 23 0 19 1;
#X connect 24 0 9 1;
#X connect 25 1 32 0;
#X connect 28 0 2 0;
#X connect 29 0 3 0;
#X connect 30 0 4 0;
#X connect 31 0 5 0;
#X connect 32 0 12 0;
#X connect 33 0 1 0;
#X connect 34 0 24 1;
#X connect 34 0 23 1;
#X connect 35 0 34 0;
#X restore 963 3 pd k \;;
#N canvas 708 139 396 396 sx 0;
#X obj 70 350 outlet;
#X msg 9 78 1;
#X msg 66 78 0;
#X msg 129 79 1;
#X msg 186 80 0;
#X obj 9 98 t b b b;
#X obj 9 129 tgl 15 0 empty empty empty 17 7 0 10 -262144 -1 -1 0 1
;
#X obj 9 155 metro 33;
#X obj 9 205 +;
#X obj 9 251 loadbang;
#X msg 9 272 0;
#X obj 9 7 key;
#X obj 129 99 t b b b;
#X obj 129 130 tgl 15 0 empty empty empty 17 7 0 10 -262144 -1 -1 0
1;
#X obj 129 156 metro 33;
#X obj 129 205 -;
#X obj 129 7 keyup;
#X obj 9 229 moses 0;
#X obj 73 155 f;
#X obj 193 156 f;
#X obj 9 181 f;
#X obj 129 181 f;
#X floatatom 70 301 16 0 0 0 - - -, f 16;
#X obj 9 58 sel 115;
#X obj 66 58 sel 115;
#X obj 129 59 sel 120;
#X obj 186 59 sel 120;
#X obj 91 129 r l2;
#X obj 70 229 moses 1001;
#X msg 37 181 1;
#X msg 157 181 1;
#X connect 1 0 5 0;
#X connect 2 0 6 0;
#X connect 3 0 12 0;
#X connect 4 0 13 0;
#X connect 5 0 6 0;
#X connect 5 1 29 0;
#X connect 5 2 18 0;
#X connect 6 0 7 0;
#X connect 7 0 20 0;
#X connect 8 0 17 0;
#X connect 8 0 20 1;
#X connect 9 0 10 0;
#X connect 10 0 22 0;
#X connect 11 0 23 0;
#X connect 11 0 25 0;
#X connect 12 0 13 0;
#X connect 12 1 30 0;
#X connect 12 2 19 0;
#X connect 13 0 14 0;
#X connect 14 0 21 0;
#X connect 15 0 17 0;
#X connect 15 0 21 1;
#X connect 16 0 24 0;
#X connect 16 0 26 0;
#X connect 17 1 28 0;
#X connect 18 0 20 1;
#X connect 19 0 21 1;
#X connect 20 0 8 0;
#X connect 21 0 15 0;
#X connect 22 0 18 1;
#X connect 22 0 19 1;
#X connect 22 0 0 0;
#X connect 23 0 1 0;
#X connect 24 0 2 0;
#X connect 25 0 3 0;
#X connect 26 0 4 0;
#X connect 27 0 18 1;
#X connect 27 0 19 1;
#X connect 28 0 22 0;
#X connect 29 0 8 1;
#X connect 30 0 15 1;
#X restore 505 3 pd sx;
#N canvas 643 145 396 396 dc 0;
#X obj 78 328 outlet;
#X msg 9 78 1;
#X msg 66 78 0;
#X msg 129 79 1;
#X msg 186 80 0;
#X obj 9 98 t b b b;
#X obj 9 129 tgl 15 0 empty empty empty 17 7 0 10 -262144 -1 -1 0 1
;
#X obj 9 155 metro 33;
#X obj 9 205 +;
#X obj 9 251 loadbang;
#X msg 9 272 0;
#X obj 9 7 key;
#X obj 129 99 t b b b;
#X obj 129 130 tgl 15 0 empty empty empty 17 7 0 10 -262144 -1 -1 0
1;
#X obj 129 156 metro 33;
#X obj 129 205 -;
#X obj 129 7 keyup;
#X obj 73 155 f;
#X obj 193 156 f;
#X obj 9 181 f;
#X obj 129 181 f;
#X floatatom 78 291 16 0 0 0 - - -, f 16;
#X obj 9 58 sel 100;
#X obj 66 58 sel 100;
#X obj 129 59 sel 99;
#X obj 186 59 sel 99;
#X obj 86 105 r l3;
#X obj 9 229 moses 0;
#X msg 37 181 1;
#X msg 157 181 1;
#X obj 78 229 moses 10000;
#X obj 78 308 / 100;
#X obj 86 127 * 100;
#X connect 1 0 5 0;
#X connect 2 0 6 0;
#X connect 3 0 12 0;
#X connect 4 0 13 0;
#X connect 5 0 6 0;
#X connect 5 1 28 0;
#X connect 5 2 17 0;
#X connect 6 0 7 0;
#X connect 7 0 19 0;
#X connect 8 0 19 1;
#X connect 8 0 27 0;
#X connect 9 0 10 0;
#X connect 10 0 21 0;
#X connect 11 0 22 0;
#X connect 11 0 24 0;
#X connect 12 0 13 0;
#X connect 12 1 29 0;
#X connect 12 2 18 0;
#X connect 13 0 14 0;
#X connect 14 0 20 0;
#X connect 15 0 20 1;
#X connect 15 0 27 0;
#X connect 16 0 23 0;
#X connect 16 0 25 0;
#X connect 17 0 19 1;
#X connect 18 0 20 1;
#X connect 19 0 8 0;
#X connect 20 0 15 0;
#X connect 21 0 17 1;
#X connect 21 0 18 1;
#X connect 21 0 31 0;
#X connect 22 0 1 0;
#X connect 23 0 2 0;
#X connect 24 0 3 0;
#X connect 25 0 4 0;
#X connect 26 0 32 0;
#X connect 27 1 30 0;
#X connect 28 0 8 1;
#X connect 29 0 15 1;
#X connect 30 0 21 0;
#X connect 31 0 0 0;
#X connect 32 0 17 1;
#X connect 32 0 18 1;
#X restore 553 3 pd dc;
#N canvas 708 139 396 396 gb 0;
#X obj 70 350 outlet;
#X msg 9 78 1;
#X msg 66 78 0;
#X msg 129 79 1;
#X msg 186 80 0;
#X obj 9 98 t b b b;
#X obj 9 129 tgl 15 0 empty empty empty 17 7 0 10 -262144 -1 -1 0 1
;
#X obj 9 155 metro 33;
#X obj 9 205 +;
#X obj 9 251 loadbang;
#X msg 9 272 0;
#X obj 9 7 key;
#X obj 129 99 t b b b;
#X obj 129 130 tgl 15 0 empty empty empty 17 7 0 10 -262144 -1 -1 0
1;
#X obj 129 156 metro 33;
#X obj 129 205 -;
#X obj 129 7 keyup;
#X obj 9 229 moses 0;
#X obj 70 229 moses 10001;
#X msg 37 181 10;
#X msg 157 181 10;
#X obj 73 155 f;
#X obj 193 156 f;
#X obj 9 181 f;
#X obj 129 181 f;
#X floatatom 70 301 16 0 0 0 - - -, f 16;
#X obj 9 58 sel 103;
#X obj 66 58 sel 103;
#X obj 129 59 sel 98;
#X obj 186 59 sel 98;
#X obj 91 129 r r1;
#X connect 1 0 5 0;
#X connect 2 0 6 0;
#X connect 3 0 12 0;
#X connect 4 0 13 0;
#X connect 5 0 6 0;
#X connect 5 1 19 0;
#X connect 5 2 21 0;
#X connect 6 0 7 0;
#X connect 7 0 23 0;
#X connect 8 0 17 0;
#X connect 8 0 23 1;
#X connect 9 0 10 0;
#X connect 10 0 25 0;
#X connect 11 0 26 0;
#X connect 11 0 28 0;
#X connect 12 0 13 0;
#X connect 12 1 20 0;
#X connect 12 2 22 0;
#X connect 13 0 14 0;
#X connect 14 0 24 0;
#X connect 15 0 17 0;
#X connect 15 0 24 1;
#X connect 16 0 27 0;
#X connect 16 0 29 0;
#X connect 17 1 18 0;
#X connect 18 0 25 0;
#X connect 19 0 8 1;
#X connect 20 0 15 1;
#X connect 21 0 23 1;
#X connect 22 0 24 1;
#X connect 23 0 8 0;
#X connect 24 0 15 0;
#X connect 25 0 21 1;
#X connect 25 0 22 1;
#X connect 25 0 0 0;
#X connect 26 0 1 0;
#X connect 27 0 2 0;
#X connect 28 0 3 0;
#X connect 29 0 4 0;
#X connect 30 0 21 1;
#X connect 30 0 22 1;
#X restore 782 3 pd gb;
#N canvas 708 139 396 396 hn 0;
#X obj 70 350 outlet;
#X msg 9 78 1;
#X msg 66 78 0;
#X msg 129 79 1;
#X msg 186 80 0;
#X obj 9 98 t b b b;
#X obj 9 129 tgl 15 0 empty empty empty 17 7 0 10 -262144 -1 -1 0 1
;
#X obj 9 155 metro 33;
#X obj 9 205 +;
#X obj 9 251 loadbang;
#X msg 9 272 0;
#X obj 9 7 key;
#X obj 129 99 t b b b;
#X obj 129 130 tgl 15 0 empty empty empty 17 7 0 10 -262144 -1 -1 0
1;
#X obj 129 156 metro 33;
#X obj 129 205 -;
#X obj 129 7 keyup;
#X obj 9 229 moses 0;
#X obj 73 155 f;
#X obj 193 156 f;
#X obj 9 181 f;
#X obj 129 181 f;
#X floatatom 70 301 16 0 0 0 - - -, f 16;
#X obj 70 229 moses 1001;
#X msg 37 181 1;
#X msg 157 181 1;
#X obj 9 58 sel 104;
#X obj 66 58 sel 104;
#X obj 129 59 sel 110;
#X obj 186 59 sel 110;
#X obj 91 129 r r2;
#X connect 1 0 5 0;
#X connect 2 0 6 0;
#X connect 3 0 12 0;
#X connect 4 0 13 0;
#X connect 5 0 6 0;
#X connect 5 1 24 0;
#X connect 5 2 18 0;
#X connect 6 0 7 0;
#X connect 7 0 20 0;
#X connect 8 0 17 0;
#X connect 8 0 20 1;
#X connect 9 0 10 0;
#X connect 10 0 22 0;
#X connect 11 0 26 0;
#X connect 11 0 28 0;
#X connect 12 0 13 0;
#X connect 12 1 25 0;
#X connect 12 2 19 0;
#X connect 13 0 14 0;
#X connect 14 0 21 0;
#X connect 15 0 17 0;
#X connect 15 0 21 1;
#X connect 16 0 27 0;
#X connect 16 0 29 0;
#X connect 17 1 23 0;
#X connect 18 0 20 1;
#X connect 19 0 21 1;
#X connect 20 0 8 0;
#X connect 21 0 15 0;
#X connect 22 0 18 1;
#X connect 22 0 19 1;
#X connect 22 0 0 0;
#X connect 23 0 22 0;
#X connect 24 0 8 1;
#X connect 25 0 15 1;
#X connect 26 0 1 0;
#X connect 27 0 2 0;
#X connect 28 0 3 0;
#X connect 29 0 4 0;
#X connect 30 0 18 1;
#X connect 30 0 19 1;
#X restore 845 3 pd hn;
#N canvas 643 145 396 396 jm 0;
#X obj 78 336 outlet;
#X msg 9 78 1;
#X msg 66 78 0;
#X msg 129 79 1;
#X msg 186 80 0;
#X obj 9 98 t b b b;
#X obj 9 129 tgl 15 0 empty empty empty 17 7 0 10 -262144 -1 -1 0 1
;
#X obj 9 155 metro 33;
#X obj 9 205 +;
#X obj 9 251 loadbang;
#X msg 9 272 0;
#X obj 9 7 key;
#X obj 129 99 t b b b;
#X obj 129 130 tgl 15 0 empty empty empty 17 7 0 10 -262144 -1 -1 0
1;
#X obj 129 156 metro 33;
#X obj 129 205 -;
#X obj 129 7 keyup;
#X obj 73 155 f;
#X obj 193 156 f;
#X obj 9 181 f;
#X obj 129 181 f;
#X floatatom 78 291 16 0 0 0 - - -, f 16;
#X obj 9 229 moses 0;
#X obj 9 58 sel 106;
#X obj 66 58 sel 106;
#X obj 129 59 sel 109;
#X obj 186 59 sel 109;
#X obj 84 129 * 100;
#X obj 84 107 r r3;
#X obj 78 313 / 100;
#X obj 78 229 moses 10000;
#X msg 37 181 1;
#X msg 157 181 1;
#X connect 1 0 5 0;
#X connect 2 0 6 0;
#X connect 3 0 12 0;
#X connect 4 0 13 0;
#X connect 5 0 6 0;
#X connect 5 1 31 0;
#X connect 5 2 17 0;
#X connect 6 0 7 0;
#X connect 7 0 19 0;
#X connect 8 0 19 1;
#X connect 8 0 22 0;
#X connect 9 0 10 0;
#X connect 10 0 21 0;
#X connect 11 0 23 0;
#X connect 11 0 25 0;
#X connect 12 0 13 0;
#X connect 12 1 32 0;
#X connect 12 2 18 0;
#X connect 13 0 14 0;
#X connect 14 0 20 0;
#X connect 15 0 20 1;
#X connect 15 0 22 0;
#X connect 16 0 24 0;
#X connect 16 0 26 0;
#X connect 17 0 19 1;
#X connect 18 0 20 1;
#X connect 19 0 8 0;
#X connect 20 0 15 0;
#X connect 21 0 17 1;
#X connect 21 0 18 1;
#X connect 21 0 29 0;
#X connect 22 1 30 0;
#X connect 23 0 1 0;
#X connect 24 0 2 0;
#X connect 25 0 3 0;
#X connect 26 0 4 0;
#X connect 27 0 18 1;
#X connect 27 0 17 1;
#X connect 28 0 27 0;
#X connect 29 0 0 0;
#X connect 30 0 21 0;
#X connect 31 0 8 1;
#X connect 32 0 15 1;
#X restore 893 3 pd jm;
#X text 159 698 Editar: Ctrl + E;
#X text 159 712 Sonido On: Ctrl + Shift + 7;
#X text 159 726 Sonido Off: Ctrl + .;
#X connect 0 0 21 0;
#X connect 1 0 4 0;
#X connect 2 0 27 0;
#X connect 3 0 4 1;
#X connect 7 0 1 0;
#X connect 8 0 15 0;
#X connect 9 0 16 0;
#X connect 10 0 7 0;
#X connect 11 0 17 0;
#X connect 12 0 18 0;
#X connect 13 0 19 0;
#X connect 14 0 20 0;
#X connect 22 0 1 1;
#X connect 22 0 23 0;
#X connect 24 0 3 0;
#X connect 25 0 24 0;
#X connect 28 0 26 0;
#X connect 28 0 3 1;
#X connect 29 0 10 0;
#X connect 30 0 25 0;
#X connect 31 0 0 0;
#X connect 46 0 8 0;
#X connect 47 0 2 0;
#X connect 48 0 9 0;
#X connect 49 0 11 0;
#X connect 50 0 12 0;
#X connect 51 0 13 0;
#X connect 52 0 14 0;
